name Walk2.mot
datacolumns 19
datarows 17
range 2.10000000 2.18000000
endheader

                time	   L_ground_force_vx	   L_ground_force_vy	   L_ground_force_vz	   L_ground_force_px	   L_ground_force_py	   L_ground_force_pz	   R_ground_force_vx	   R_ground_force_vy	   R_ground_force_vz	   R_ground_force_px	   R_ground_force_py	   R_ground_force_pz	   L_ground_torque_x	   L_ground_torque_y	   L_ground_torque_z	   R_ground_torque_x	   R_ground_torque_y	   R_ground_torque_z	
          2.10000000	        -29.04344314	        537.77674143	         22.95324070	          0.48026632	          0.00000000	          0.21338944	         -0.00000000	          0.00000000	         -0.00000000	         -0.00000000	          0.00000000	          0.00000000	          0.00000000	         -0.98117803	          0.00000000	          0.00000000	          0.00000000	          0.00000000	
          2.10500000	        -26.69604644	        532.31045978	         23.58352596	          0.48219542	          0.00000000	          0.21304219	         -0.00000000	          0.00000000	         -0.00000000	         -0.00000000	          0.00000000	          0.00000000	          0.00000000	         -1.10580200	          0.00000000	          0.00000000	         -0.00000000	          0.00000000	
          2.11000000	        -24.48568105	        528.12579334	         24.98457014	          0.48427410	          0.00000000	          0.21275688	         -0.00000000	          0.00000000	         -0.00000000	         -0.00000000	          0.00000000	          0.00000000	          0.00000000	         -1.18888718	          0.00000000	          0.00000000	         -0.00000000	          0.00000000	
          2.11500000	        -22.36721847	        524.97088303	         26.85445086	          0.48615654	          0.00000000	          0.21242010	          0.00000000	         -0.00000000	          0.00000000	          0.00000000	          0.00000000	         -0.00000000	          0.00000000	         -1.28506040	          0.00000000	          0.00000000	          0.00000000	          0.00000000	
          2.12000000	        -20.44968271	        522.82383437	         28.76001565	          0.48782996	          0.00000000	          0.21196033	          0.00000000	         -0.00000000	          0.00000000	          0.00000000	          0.00000000	         -0.00000000	          0.00000000	         -1.39277162	          0.00000000	          0.00000000	          0.00000000	          0.00000000	
          2.12500000	        -18.61306418	        522.21088520	         30.59327145	          0.48948210	          0.00000000	          0.21159722	          0.00000000	         -0.00000000	          0.00000000	          0.00000000	          0.00000000	         -0.00000000	          0.00000000	         -1.46338277	          0.00000000	          0.00000000	          0.00000000	          0.00000000	
          2.13000000	        -16.61385891	        523.13723754	         32.30074859	          0.49130737	          0.00000000	          0.21123118	         -0.00000000	          0.00000000	         -0.00000000	         -0.00000000	          0.00000000	          0.00000000	          0.00000000	         -1.48993275	          0.00000000	          0.00000000	         -0.00000000	          0.00000000	
          2.13500000	        -14.39501507	        525.46479508	         33.77637290	          0.49304384	          0.00000000	          0.21097264	         -0.00000000	          0.00000000	         -0.00000000	         -0.00000000	          0.00000000	          0.00000000	          0.00000000	         -1.52019367	          0.00000000	          0.00000000	         -0.00000000	          0.00000000	
          2.14000000	        -11.96042642	        529.24102852	         35.05631785	          0.49450745	          0.00000000	          0.21084445	         -0.00000000	          0.00000000	         -0.00000000	         -0.00000000	          0.00000000	          0.00000000	          0.00000000	         -1.59678356	          0.00000000	          0.00000000	         -0.00000000	          0.00000000	
          2.14500000	         -9.31611644	        534.53612562	         36.02448372	          0.49599084	          0.00000000	          0.21061911	          0.00000000	         -0.00000000	          0.00000000	          0.00000000	          0.00000000	         -0.00000000	          0.00000000	         -1.69790266	          0.00000000	          0.00000000	          0.00000000	          0.00000000	
          2.15000000	         -6.40720140	        541.46172153	         36.62145567	          0.49757620	          0.00000000	          0.21044649	          0.00000000	         -0.00000000	          0.00000000	          0.00000000	          0.00000000	         -0.00000000	          0.00000000	         -1.77922236	          0.00000000	          0.00000000	          0.00000000	          0.00000000	
          2.15500000	         -3.42042895	        549.52393921	         36.81067294	          0.49902504	          0.00000000	          0.21045904	          0.00000000	          0.00000000	          0.00000000	          0.00000000	          0.00000000	         -0.00000000	          0.00000000	         -1.90412378	          0.00000000	          0.00000000	          0.00000000	          0.00000000	
          2.16000000	         -0.51384604	        558.48048989	         36.50812888	          0.50058618	          0.00000000	          0.21053943	         -0.00000000	          0.00000000	         -0.00000000	         -0.00000000	          0.00000000	          0.00000000	          0.00000000	         -2.09203384	          0.00000000	          0.00000000	         -0.00000000	          0.00000000	
          2.16500000	          2.14715234	        568.43311462	         35.87492611	          0.50204151	          0.00000000	          0.21059433	         -0.00000000	          0.00000000	         -0.00000000	         -0.00000000	          0.00000000	          0.00000000	          0.00000000	         -2.28255165	          0.00000000	          0.00000000	         -0.00000000	          0.00000000	
          2.17000000	          4.57264551	        579.13284451	         35.10101892	          0.50344338	          0.00000000	          0.21076280	          0.00000000	         -0.00000000	          0.00000000	          0.00000000	          0.00000000	         -0.00000000	          0.00000000	         -2.46851152	          0.00000000	          0.00000000	          0.00000000	          0.00000000	
          2.17500000	          6.93352721	        590.15672865	         34.00503887	          0.50512202	          0.00000000	          0.21108757	          0.00000000	         -0.00000000	          0.00000000	          0.00000000	          0.00000000	         -0.00000000	          0.00000000	         -2.70973774	          0.00000000	          0.00000000	          0.00000000	          0.00000000	
          2.18000000	          9.24341564	        601.38778170	         32.55870242	          0.50688851	          0.00000000	          0.21144311	          0.00000000	         -0.00000000	          0.00000000	          0.00000000	          0.00000000	         -0.00000000	          0.00000000	         -2.98333305	          0.00000000	          0.00000000	          0.00000000	          0.00000000	
